PathFileType	4	(X/Y/Z)	D:\TRACE\v60_Jaco2_6-2-23\BothDRS_Motion1_1-platform.trc
DataRate	CameraRate	NumFrames	NumMarkers	Units	OrigDataRate	OrigDataStartFrame	OrigNumFrames
100.00	100.00	      50	5	mm	100.00	1	      6857
Frame#	Time	Left_Front			Right_Front			Left_Aft			Right_Aft			Post			
		X1	Y1	Z1	X2	Y2	Z2	X3	Y3	Z3	X4	Y4	Z4	X5	Y5	Z5	

1	0.000	-800.58923	8.77470	-639.01172	769.57397	10.00099	-644.08173	-708.75525	7.84151	496.15106	733.14777	7.09003	505.64264	-14.35273	1307.86523	-962.21173	
2	0.010	-800.61047	8.72413	-638.97101	769.61279	10.00498	-644.08948	-708.72260	7.83287	496.12961	733.06885	7.05674	505.63242	-14.28059	1307.85376	-962.19623	
3	0.020	-800.64044	8.75913	-638.93115	769.60950	10.00927	-644.08484	-708.71625	7.81698	496.18576	733.07306	7.03621	505.67218	-14.33997	1307.84875	-962.20807	
4	0.030	-800.63568	8.77015	-638.90448	769.57416	10.00151	-644.11414	-708.69434	7.80835	496.18829	733.08435	7.07150	505.66306	-14.30015	1307.81824	-962.19519	
5	0.040	-800.61578	8.75814	-638.96570	769.61865	10.00647	-644.08411	-708.66791	7.81662	496.19354	733.14154	7.04403	505.62460	-14.29850	1307.82739	-962.20288	
6	0.050	-800.61292	8.75380	-638.96863	769.61548	9.99463	-644.06366	-708.70709	7.83227	496.18457	733.17285	7.09967	505.62531	-14.35346	1307.84814	-962.24060	
7	0.060	-800.61249	8.73548	-638.97363	769.62897	10.02047	-644.05841	-708.71893	7.83591	496.16400	733.09772	7.06832	505.64316	-14.39308	1307.86890	-962.20776	
8	0.070	-800.60504	8.71334	-638.92969	769.58130	9.98542	-644.07660	-708.67548	7.79473	496.17148	733.09509	7.06476	505.66788	-14.31903	1307.85535	-962.21143	
9	0.080	-800.63593	8.71743	-638.95062	769.59930	10.00850	-644.07837	-708.71112	7.79108	496.17487	733.07483	7.05015	505.66241	-14.32092	1307.84448	-962.20905	
10	0.090	-800.61908	8.69907	-638.92657	769.57605	9.99674	-644.06165	-708.66498	7.78468	496.19431	733.09375	7.09090	505.66245	-14.28611	1307.85889	-962.22083	
11	0.100	-800.61285	8.77773	-638.88184	769.59027	9.99702	-644.05750	-708.68402	7.81505	496.16458	733.06073	7.08007	505.64554	-14.29024	1307.83899	-962.18439	
12	0.110	-800.62097	8.78608	-638.97107	769.47864	10.01869	-644.16772	-708.70074	7.81806	496.17569	733.17450	7.11774	505.64761	-14.29366	1307.85803	-962.22784	
13	0.120	-800.60931	8.78925	-638.93762	769.47284	10.04093	-644.12390	-708.68915	7.80205	496.18085	733.09705	7.06980	505.62970	-14.31771	1307.85461	-962.21564	
14	0.130	-800.61035	8.76297	-638.90387	769.60687	10.00376	-644.12402	-708.69800	7.81554	496.16376	733.13611	7.07580	505.63562	-14.28640	1307.84302	-962.19995	
15	0.140	-800.60773	8.71778	-638.96576	769.57098	9.99322	-644.09174	-708.70856	7.82141	496.17462	733.11426	7.10358	505.67477	-14.36011	1307.82642	-962.20361	
16	0.150	-800.57562	8.74423	-638.96960	769.46124	10.02773	-644.13477	-708.68512	7.80097	496.19254	733.20233	7.09174	505.63657	-14.33462	1307.84290	-962.19293	
17	0.160	-800.58862	8.74505	-638.96216	769.61322	10.03304	-644.09082	-708.67212	7.86792	496.19232	733.11591	7.09119	505.63782	-14.34379	1307.85645	-962.22406	
18	0.170	-800.60144	8.79091	-638.94092	769.66327	10.03209	-644.05389	-708.67548	7.81147	496.13889	733.23639	7.10477	505.64014	-14.37036	1307.87524	-962.22626	
19	0.180	-800.64832	8.72456	-638.92181	769.56702	9.99926	-644.09155	-708.69458	7.80289	496.19247	733.14996	7.08946	505.65390	-14.32815	1307.81580	-962.20630	
20	0.190	-800.63446	8.73236	-638.91681	769.57581	9.99312	-644.10590	-708.67126	7.77450	496.17996	733.07977	7.06244	505.67245	-14.31142	1307.83203	-962.20624	
21	0.200	-800.60883	8.71808	-638.94446	769.57513	9.97071	-644.12122	-708.72797	7.79306	496.16733	733.14417	7.06080	505.64169	-14.30877	1307.84546	-962.19702	
22	0.210	-800.61951	8.71565	-638.97699	769.45288	10.02159	-644.15991	-708.73181	7.83936	496.16708	733.08026	7.07374	505.64789	-14.33205	1307.85205	-962.21997	
23	0.220	-800.61987	8.77670	-638.94995	769.59143	9.99824	-644.10492	-708.73157	7.85025	496.16272	733.10785	7.05942	505.63727	-14.33486	1307.89648	-962.19556	
24	0.230	-800.64398	8.76682	-638.92981	769.63019	10.03448	-644.08777	-708.68890	7.79460	496.16043	733.05664	7.04588	505.63641	-14.32805	1307.84851	-962.21570	
25	0.240	-800.62671	8.72658	-638.93341	769.42767	10.04737	-644.16736	-708.68555	7.76728	496.18057	733.08411	7.03497	505.63654	-14.30536	1307.87024	-962.18854	
26	0.250	-800.65656	8.78544	-638.91187	769.60498	10.00797	-644.10712	-708.70959	7.81555	496.18283	733.11389	7.06183	505.65970	-14.28127	1307.85364	-962.21216	
27	0.260	-800.61920	8.75077	-638.95776	769.57404	10.00468	-644.11340	-708.67230	7.83474	496.19315	733.12109	7.07846	505.63464	-14.35963	1307.86804	-962.22717	
28	0.270	-800.62750	8.77439	-638.95721	769.47437	10.04147	-644.15253	-708.67554	7.81123	496.17303	733.18085	7.11768	505.63739	-14.38390	1307.89014	-962.21423	
29	0.280	-800.62909	8.77645	-638.96942	769.57306	9.99830	-644.08221	-708.72498	7.86054	496.16187	733.14734	7.08476	505.64850	-14.31497	1307.86890	-962.22314	
30	0.290	-800.68817	8.79901	-638.85602	769.56738	10.00032	-644.07745	-708.68591	7.79180	496.17770	733.03552	7.05923	505.64523	-14.26723	1307.85132	-962.20117	
31	0.300	-800.62500	8.72619	-638.93323	769.52649	9.95812	-644.13763	-708.69470	7.77873	496.20557	733.05377	7.05563	505.64258	-14.33710	1307.84778	-962.22375	
32	0.310	-800.67340	8.79304	-638.93579	769.59827	10.00821	-644.09003	-708.69580	7.78642	496.16611	733.10840	7.05693	505.65341	-14.30250	1307.88000	-962.22107	
33	0.320	-800.62592	8.75543	-638.96399	769.56946	9.99951	-644.12140	-708.71466	7.80733	496.19116	733.04797	7.05034	505.64206	-14.32195	1307.88489	-962.19861	
34	0.330	-800.59442	8.80415	-638.95746	769.55658	10.01617	-644.13214	-708.71051	7.83864	496.17114	733.18268	7.11346	505.65372	-14.27651	1307.84778	-962.19104	
35	0.340	-800.62531	8.74014	-638.97235	769.59509	10.01643	-644.10614	-708.68909	7.79951	496.17413	733.03717	7.05217	505.67068	-14.36311	1307.89685	-962.22577	
36	0.350	-800.62994	8.76080	-638.96985	769.56775	10.01014	-644.06769	-708.70837	7.78098	496.16263	733.09216	7.07631	505.68091	-14.36401	1307.88159	-962.19751	
37	0.360	-800.61627	8.72903	-638.91455	769.61096	9.99760	-644.08765	-708.71759	7.79969	496.15857	733.11566	7.06922	505.64404	-14.35200	1307.89050	-962.22296	
38	0.370	-800.61078	8.81123	-638.97046	769.58215	10.00159	-644.08038	-708.73669	7.85935	496.18652	733.12659	7.08913	505.63290	-14.34552	1307.91907	-962.19757	
39	0.380	-800.59167	8.73996	-638.95984	769.58881	10.01660	-644.11456	-708.69635	7.81039	496.11414	733.09052	7.05453	505.65442	-14.32885	1307.91553	-962.21063	
40	0.390	-800.63788	8.79469	-638.97052	769.45886	10.04882	-644.15790	-708.72784	7.83233	496.14984	733.10486	7.09811	505.62454	-14.30505	1307.87671	-962.22382	
41	0.400	-800.64215	8.71373	-638.96442	769.58771	10.00587	-644.10114	-708.70081	7.76943	496.16354	733.06946	7.10118	505.65790	-14.33305	1307.87207	-962.22632	
42	0.410	-800.65894	8.71183	-638.91541	769.56689	9.99108	-644.11407	-708.67938	7.79699	496.20795	733.11603	7.08115	505.64264	-14.30982	1307.83765	-962.19965	
43	0.420	-800.62140	8.75396	-638.93237	769.57458	10.01665	-644.08392	-708.72034	7.79184	496.16385	733.09955	7.06595	505.66388	-14.34961	1307.87915	-962.21252	
44	0.430	-800.60223	8.72752	-639.00952	769.63141	10.01474	-644.07019	-708.68536	7.80784	496.18060	733.13641	7.06486	505.64340	-14.30053	1307.84949	-962.19525	
45	0.440	-800.61877	8.76087	-638.96558	769.62677	10.00520	-644.06757	-708.65479	7.78667	496.19168	733.23047	7.11475	505.65982	-14.30807	1307.87317	-962.23138	
46	0.450	-800.65131	8.70886	-638.91693	769.52844	9.98432	-644.11340	-708.69934	7.80339	496.17548	733.05066	7.02068	505.64182	-14.28180	1307.86108	-962.19550	
47	0.460	-800.67511	8.73039	-638.87964	769.55316	9.98106	-644.14868	-708.68243	7.75978	496.16840	733.12573	7.06060	505.67337	-14.30171	1307.84631	-962.21167	
48	0.470	-800.66132	8.70541	-638.96783	769.58942	10.01759	-644.08514	-708.69476	7.77653	496.19818	732.97699	7.03432	505.66553	-14.35859	1307.85413	-962.23401	
49	0.480	-800.58887	8.71712	-639.03210	769.45490	10.03218	-644.14301	-708.70868	7.86939	496.17404	733.15771	7.08937	505.64624	-14.36165	1307.89014	-962.20709	
50	0.490	-800.62067	8.75325	-638.93060	769.58875	10.01026	-644.09314	-708.69391	7.85697	496.13156	733.08679	7.07791	505.63916	-14.30580	1307.90417	-962.20410	
